<?xml version="1.0" encoding="UTF-8" standalone="no"?>
<svg
   xmlns:dc="http://purl.org/dc/elements/1.1/"
   xmlns:cc="http://creativecommons.org/ns#"
   xmlns:rdf="http://www.w3.org/1999/02/22-rdf-syntax-ns#"
   xmlns:svg="http://www.w3.org/2000/svg"
   xmlns="http://www.w3.org/2000/svg"
   viewBox="0 0 757.57349 181.35199"
   height="181.35199"
   width="757.57349"
   xml:space="preserve"
   id="svg2"
   version="1.1"><metadata
     id="metadata8"><rdf:RDF><cc:Work
         rdf:about=""><dc:format>image/svg+xml</dc:format><dc:type
           rdf:resource="http://purl.org/dc/dcmitype/StillImage" /><dc:title></dc:title></cc:Work></rdf:RDF></metadata><defs
     id="defs6"><clipPath
       id="clipPath20"
       clipPathUnits="userSpaceOnUse"><path
         id="path18"
         d="M 0,612 H 792 V 0 H 0 Z" /></clipPath><clipPath
       id="clipPath70"
       clipPathUnits="userSpaceOnUse"><path
         id="path68"
         d="m 111.91,259.185 6.768,15.454 v 62.669 l -6.768,15.528 z" /></clipPath><linearGradient
       id="linearGradient80"
       spreadMethod="pad"
       gradientTransform="matrix(-38.543926,-73.41536,-73.41536,38.543926,131.18156,342.71793)"
       gradientUnits="userSpaceOnUse"
       y2="0"
       x2="1"
       y1="0"
       x1="0"><stop
         id="stop76"
         offset="0"
         style="stop-opacity:1;stop-color:#00cefd" /><stop
         id="stop78"
         offset="1"
         style="stop-opacity:1;stop-color:#ac00ff" /></linearGradient><clipPath
       id="clipPath90"
       clipPathUnits="userSpaceOnUse"><path
         id="path88"
         d="m 172.931,305.998 c -3.969,-1.826 -8.344,-3.705 -12.602,-5.532 v 0 c -12.991,-5.577 -27.715,-11.9 -37.399,-19.275 v 0 l -4.198,-3.588 c -3.964,-3.406 -6.38,-8.156 -6.804,-13.369 v 0 l -0.018,-26.241 9.973,10.634 c 0.261,0.277 0.499,0.514 0.728,0.722 v 0 l 3.528,3.186 c 8.994,7.266 23.769,13.588 36.812,19.168 v 0 c 22.906,9.784 33.697,15.245 33.697,23.036 v 0 c 0,3.961 -2.717,7.378 -9.012,11.258 v 0 l -0.015,-0.008 -2.011,-1.101 -4.931,-2.697 c 7.992,-4.288 9.201,-6.504 9.201,-7.452 v 0 c 0,-4.175 -18.523,-12.086 -29.589,-16.812 v 0 l -0.002,-0.002 c -13.441,-5.751 -28.678,-12.268 -38.469,-20.179 v 0 l -3.143,-2.832 -0.003,8.772 c 0.278,3.428 1.868,6.549 4.477,8.792 v 0 l 3.717,3.207 0.157,0.117 c 9.028,6.875 23.972,13.292 35.981,18.448 v 0 c 6.442,2.766 12.538,5.383 17.673,7.941 v 0 l -7.591,3.736 -0.149,0.073 0.025,0.013 c -0.011,-0.006 -0.022,-0.01 -0.033,-0.015" /></clipPath><linearGradient
       id="linearGradient100"
       spreadMethod="pad"
       gradientTransform="matrix(-44.351276,-84.47673,-84.47673,44.351276,172.11589,314.14584)"
       gradientUnits="userSpaceOnUse"
       y2="0"
       x2="1"
       y1="0"
       x1="0"><stop
         id="stop96"
         offset="0"
         style="stop-opacity:1;stop-color:#00cefd" /><stop
         id="stop98"
         offset="1"
         style="stop-opacity:1;stop-color:#ac00ff" /></linearGradient><clipPath
       id="clipPath110"
       clipPathUnits="userSpaceOnUse"><path
         id="path108"
         d="m 111.91,348.23 0.018,-0.467 c 0.424,-5.214 2.842,-9.964 6.809,-13.375 v 0 l 3.749,-3.232 0.405,-0.321 c 9.728,-7.407 24.453,-13.73 37.445,-19.308 v 0 c 4.255,-1.826 8.631,-3.705 12.595,-5.529 v 0 c 0.011,0.005 0.022,0.009 0.033,0.015 v 0 l 7.715,3.793 c -5.135,2.557 -11.231,5.174 -17.673,7.941 v 0 c -12.009,5.155 -26.953,11.572 -35.981,18.447 v 0 l -3.875,3.325 c -2.608,2.243 -4.198,5.365 -4.472,8.711 v 0 8.852 l 3.05,-2.759 0.164,-0.131 c 9.717,-7.85 24.954,-14.369 38.398,-20.122 v 0 c 11.067,-4.728 29.59,-12.64 29.59,-16.812 v 0 c 0,-0.948 -1.209,-3.165 -9.201,-7.452 v 0 l 4.933,-2.696 1.961,-1.072 0.067,-0.037 c 6.292,3.879 9.008,7.296 9.008,11.257 v 0 c 0,7.79 -10.792,13.252 -33.701,23.036 v 0 c -13.038,5.579 -27.814,11.901 -36.827,19.18 v 0 l -3.506,3.173 c -0.231,0.208 -0.468,0.444 -0.729,0.722 v 0 l -9.975,10.638 z" /></clipPath><linearGradient
       id="linearGradient120"
       spreadMethod="pad"
       gradientTransform="matrix(-15.900992,-30.286926,-30.286926,15.900992,157.21999,350.21835)"
       gradientUnits="userSpaceOnUse"
       y2="0"
       x2="1"
       y1="0"
       x1="0"><stop
         id="stop116"
         offset="0"
         style="stop-opacity:1;stop-color:#00cefd" /><stop
         id="stop118"
         offset="1"
         style="stop-opacity:1;stop-color:#ac00ff" /></linearGradient><clipPath
       id="clipPath130"
       clipPathUnits="userSpaceOnUse"><path
         id="path128"
         d="m 187.636,305.998 v -10e-4 l 0.006,0.003 -0.002,10e-4 z" /></clipPath><linearGradient
       id="linearGradient140"
       spreadMethod="pad"
       gradientTransform="matrix(0.0059814,0,0,-0.0059814,187.63556,305.99915)"
       gradientUnits="userSpaceOnUse"
       y2="0"
       x2="1"
       y1="0"
       x1="0"><stop
         id="stop136"
         offset="0"
         style="stop-opacity:1;stop-color:#21d4fd" /><stop
         id="stop138"
         offset="1"
         style="stop-opacity:1;stop-color:#b721ff" /></linearGradient><clipPath
       id="clipPath150"
       clipPathUnits="userSpaceOnUse"><path
         id="path148"
         d="m 187.636,305.997 c -0.006,-0.002 -0.01,-0.005 -0.015,-0.008 v 0 z" /></clipPath><linearGradient
       id="linearGradient160"
       spreadMethod="pad"
       gradientTransform="matrix(0.0152588,0,0,-0.0152588,187.62128,305.99341)"
       gradientUnits="userSpaceOnUse"
       y2="0"
       x2="1"
       y1="0"
       x1="0"><stop
         id="stop156"
         offset="0"
         style="stop-opacity:1;stop-color:#21d4fd" /><stop
         id="stop158"
         offset="1"
         style="stop-opacity:1;stop-color:#b721ff" /></linearGradient><clipPath
       id="clipPath170"
       clipPathUnits="userSpaceOnUse"><path
         id="path168"
         d="m 187.636,305.998 0.004,0.003 -0.067,0.037 c 0.021,-0.014 0.041,-0.027 0.063,-0.04" /></clipPath><linearGradient
       id="linearGradient180"
       spreadMethod="pad"
       gradientTransform="matrix(0.0673218,0,0,-0.0673218,187.57275,306.01782)"
       gradientUnits="userSpaceOnUse"
       y2="0"
       x2="1"
       y1="0"
       x1="0"><stop
         id="stop176"
         offset="0"
         style="stop-opacity:1;stop-color:#21d4fd" /><stop
         id="stop178"
         offset="1"
         style="stop-opacity:1;stop-color:#b721ff" /></linearGradient></defs><g
     transform="matrix(1.3333333,0,0,-1.3333333,-149.21333,498.67599)"
     id="g10"><g
       style="fill:#cccccc;fill-opacity:1"
       id="g14"><g
         style="fill:#cccccc;fill-opacity:1"
         clip-path="url(#clipPath20)"
         id="g16"><g
           style="fill:#cccccc;fill-opacity:1"
           transform="translate(233.8735,291.127)"
           id="g22"><path
             id="path24"
             style="fill:#cccccc;fill-opacity:1;fill-rule:nonzero;stroke:none"
             d="m 0,0 h 10.484 c 8.29,0 14.629,6.157 14.629,14.812 0,8.717 -6.522,14.934 -14.933,14.934 H 0 Z m 10.301,36.208 c 12.801,0 22.066,-8.961 22.066,-21.335 0,-12.313 -9.326,-21.334 -22.248,-21.334 H -7.193 v 42.669 z" /></g><g
           style="fill:#cccccc;fill-opacity:1"
           transform="translate(291.2285,303.9883)"
           id="g26"><path
             id="path28"
             style="fill:#cccccc;fill-opacity:1;fill-rule:nonzero;stroke:none"
             d="m 0,0 c 6.583,0 10.362,2.804 10.362,8.595 0,5.608 -3.779,8.289 -10.362,8.289 H -10.119 V 0 Z M 1.95,-6.4 C 1.34,-6.461 0.67,-6.461 0,-6.461 h -10.119 v -12.861 h -7.193 V 23.346 H 0 c 10.911,0 17.189,-5.303 17.189,-14.568 0,-6.827 -3.169,-11.643 -8.838,-13.837 L 17.92,-19.322 H 9.752 Z" /></g><g
           style="fill:#cccccc;fill-opacity:1"
           transform="translate(325.1768,320.8726)"
           id="g30"><path
             id="path32"
             style="fill:#cccccc;fill-opacity:1;fill-rule:nonzero;stroke:none"
             d="m 0,0 v -11.52 h 20.846 v -6.461 H 0 v -11.765 h 24.016 v -6.461 H -7.193 V 6.462 H 23.284 V 0 Z" /></g><g
           style="fill:#cccccc;fill-opacity:1"
           transform="translate(374.7295,319.6538)"
           id="g34"><path
             id="path36"
             style="fill:#cccccc;fill-opacity:1;fill-rule:nonzero;stroke:none"
             d="M 0,0 -8.046,-18.957 H 8.046 Z m -10.728,-25.358 -4.084,-9.63 H -22.31 L -3.474,7.681 h 7.375 l 18.653,-42.669 h -7.681 l -4.084,9.63 z" /></g><g
           style="fill:#cccccc;fill-opacity:1"
           transform="translate(441.4102,284.666)"
           id="g38"><path
             id="path40"
             style="fill:#cccccc;fill-opacity:1;fill-rule:nonzero;stroke:none"
             d="M 0,0 -0.061,31.879 -13.531,4.45 h -4.695 l -13.47,27.429 V 0 h -6.766 v 42.668 h 8.533 l 14.08,-28.344 14.021,28.344 H 6.645 V 0 Z" /></g><g
           style="fill:#cccccc;fill-opacity:1"
           transform="translate(474.9307,320.8726)"
           id="g42"><path
             id="path44"
             style="fill:#cccccc;fill-opacity:1;fill-rule:nonzero;stroke:none"
             d="M 0,0 V -36.207 H -7.191 V 0 H -20.663 V 6.462 H 13.533 V 0 Z" /></g><g
           style="fill:#cccccc;fill-opacity:1"
           transform="translate(495.8359,305.9995)"
           id="g46"><path
             id="path48"
             style="fill:#cccccc;fill-opacity:1;fill-rule:nonzero;stroke:none"
             d="m 0,0 c 0,-8.472 7.011,-15.177 15.36,-15.177 8.352,0 15.179,6.705 15.179,15.177 0,8.473 -6.827,15.057 -15.179,15.057 C 6.949,15.057 0,8.473 0,0 m 37.914,0 c 0,-12.191 -9.874,-21.639 -22.614,-21.639 -12.739,0 -22.613,9.448 -22.613,21.639 0,12.252 9.874,21.517 22.613,21.517 12.74,0 22.614,-9.325 22.614,-21.517" /></g><g
           style="fill:#cccccc;fill-opacity:1"
           transform="translate(571.3564,284.666)"
           id="g50"><path
             id="path52"
             style="fill:#cccccc;fill-opacity:1;fill-rule:nonzero;stroke:none"
             d="M 0,0 -22.737,30.599 V 0 h -7.193 v 42.668 h 7.071 L 0,12.009 V 42.668 H 7.069 V 0 Z" /></g><path
           id="path54"
           style="fill:#cccccc;fill-opacity:1;fill-rule:nonzero;stroke:none"
           d="m 589.698,327.334 h 7.193 v -42.668 h -7.193 z" /><g
           style="fill:#cccccc;fill-opacity:1"
           transform="translate(643.2158,320.9341)"
           id="g56"><path
             id="path58"
             style="fill:#cccccc;fill-opacity:1;fill-rule:nonzero;stroke:none"
             d="m 0,0 -4.206,-5.243 c -3.108,3.353 -7.559,5.426 -11.887,5.426 -8.533,0 -15.238,-6.583 -15.238,-14.995 0,-8.412 6.705,-15.056 15.238,-15.056 4.268,0 8.656,1.951 11.887,5.059 l 4.267,-4.754 c -4.329,-4.267 -10.485,-7.011 -16.519,-7.011 -12.495,0 -22.188,9.449 -22.188,21.701 0,12.13 9.815,21.456 22.432,21.456 C -10.18,6.583 -4.146,4.083 0,0" /></g><g
           style="fill:#cccccc;fill-opacity:1"
           transform="translate(679.541,323.25)"
           id="g60"><path
             id="path62"
             style="fill:#cccccc;fill-opacity:1;fill-rule:nonzero;stroke:none"
             d="m 0,0 -2.986,-6.339 c -4.632,2.803 -9.265,3.962 -12.496,3.962 -4.205,0 -6.949,-1.584 -6.949,-4.449 0,-9.326 23.041,-4.328 22.98,-19.69 0,-7.618 -6.705,-12.312 -16.092,-12.312 -6.705,0 -13.044,2.743 -17.434,6.765 l 3.11,6.218 c 4.388,-4.022 9.874,-6.218 14.446,-6.218 4.998,0 7.984,1.89 7.984,5.182 0,9.509 -23.04,4.206 -23.04,19.384 0,7.314 6.279,11.887 15.543,11.887 C -9.387,4.39 -3.961,2.622 0,0" /></g></g></g><g
       id="g64"><g
         clip-path="url(#clipPath70)"
         id="g66"><g
           id="g72"><g
             id="g74"><path
               id="path82"
               style="fill:url(#linearGradient80);stroke:none"
               d="m 111.91,259.185 6.768,15.454 v 62.669 l -6.768,15.528 z" /></g></g></g></g><g
       id="g84"><g
         clip-path="url(#clipPath90)"
         id="g86"><g
           id="g92"><g
             id="g94"><path
               id="path102"
               style="fill:url(#linearGradient100);stroke:none"
               d="m 172.931,305.998 c -3.969,-1.826 -8.344,-3.705 -12.602,-5.532 v 0 c -12.991,-5.577 -27.715,-11.9 -37.399,-19.275 v 0 l -4.198,-3.588 c -3.964,-3.406 -6.38,-8.156 -6.804,-13.369 v 0 l -0.018,-26.241 9.973,10.634 c 0.261,0.277 0.499,0.514 0.728,0.722 v 0 l 3.528,3.186 c 8.994,7.266 23.769,13.588 36.812,19.168 v 0 c 22.906,9.784 33.697,15.245 33.697,23.036 v 0 c 0,3.961 -2.717,7.378 -9.012,11.258 v 0 l -0.015,-0.008 -2.011,-1.101 -4.931,-2.697 c 7.992,-4.288 9.201,-6.504 9.201,-7.452 v 0 c 0,-4.175 -18.523,-12.086 -29.589,-16.812 v 0 l -0.002,-0.002 c -13.441,-5.751 -28.678,-12.268 -38.469,-20.179 v 0 l -3.143,-2.832 -0.003,8.772 c 0.278,3.428 1.868,6.549 4.477,8.792 v 0 l 3.717,3.207 0.157,0.117 c 9.028,6.875 23.972,13.292 35.981,18.448 v 0 c 6.442,2.766 12.538,5.383 17.673,7.941 v 0 l -7.591,3.736 -0.149,0.073 0.025,0.013 c -0.011,-0.006 -0.022,-0.01 -0.033,-0.015" /></g></g></g></g><g
       id="g104"><g
         clip-path="url(#clipPath110)"
         id="g106"><g
           id="g112"><g
             id="g114"><path
               id="path122"
               style="fill:url(#linearGradient120);stroke:none"
               d="m 111.91,348.23 0.018,-0.467 c 0.424,-5.214 2.842,-9.964 6.809,-13.375 v 0 l 3.749,-3.232 0.405,-0.321 c 9.728,-7.407 24.453,-13.73 37.445,-19.308 v 0 c 4.255,-1.826 8.631,-3.705 12.595,-5.529 v 0 c 0.011,0.005 0.022,0.009 0.033,0.015 v 0 l 7.715,3.793 c -5.135,2.557 -11.231,5.174 -17.673,7.941 v 0 c -12.009,5.155 -26.953,11.572 -35.981,18.447 v 0 l -3.875,3.325 c -2.608,2.243 -4.198,5.365 -4.472,8.711 v 0 8.852 l 3.05,-2.759 0.164,-0.131 c 9.717,-7.85 24.954,-14.369 38.398,-20.122 v 0 c 11.067,-4.728 29.59,-12.64 29.59,-16.812 v 0 c 0,-0.948 -1.209,-3.165 -9.201,-7.452 v 0 l 4.933,-2.696 1.961,-1.072 0.067,-0.037 c 6.292,3.879 9.008,7.296 9.008,11.257 v 0 c 0,7.79 -10.792,13.252 -33.701,23.036 v 0 c -13.038,5.579 -27.814,11.901 -36.827,19.18 v 0 l -3.506,3.173 c -0.231,0.208 -0.468,0.444 -0.729,0.722 v 0 l -9.975,10.638 z" /></g></g></g></g><g
       id="g124"><g
         clip-path="url(#clipPath130)"
         id="g126"><g
           id="g132"><g
             id="g134"><path
               id="path142"
               style="fill:url(#linearGradient140);stroke:none"
               d="m 187.636,305.998 v -10e-4 l 0.006,0.003 -0.002,10e-4 z" /></g></g></g></g><g
       id="g144"><g
         clip-path="url(#clipPath150)"
         id="g146"><g
           id="g152"><g
             id="g154"><path
               id="path162"
               style="fill:url(#linearGradient160);stroke:none"
               d="m 187.636,305.997 c -0.006,-0.002 -0.01,-0.005 -0.015,-0.008 v 0 z" /></g></g></g></g><g
       id="g164"><g
         clip-path="url(#clipPath170)"
         id="g166"><g
           id="g172"><g
             id="g174"><path
               id="path182"
               style="fill:url(#linearGradient180);stroke:none"
               d="m 187.636,305.998 0.004,0.003 -0.067,0.037 c 0.021,-0.014 0.041,-0.027 0.063,-0.04" /></g></g></g></g></g></svg>