<svg xmlns="http://www.w3.org/2000/svg" viewBox="0 0 40 46.68"><defs><style>.cls-1{fill:#15e879;fill-rule:evenodd;}</style></defs><title>header_icon_menu</title><g id="レイヤー_2" data-name="レイヤー 2"><g id="レイヤー_1-2" data-name="レイヤー 1"><path class="cls-1" d="M8.76,36.87H7.51a.24.24,0,0,0-.24.14L4.66,43H4.6L2,37a.24.24,0,0,0-.25-.14H.44A.12.12,0,0,0,.3,37v9.37c0,.1,0,.15.14.15H1.68c.09,0,.14-.05.14-.15v-5.9h.05L3.92,45a.29.29,0,0,0,.27.18H5A.27.27,0,0,0,5.28,45l2.05-4.54h0v5.9a.13.13,0,0,0,.15.15H8.76c.1,0,.14-.05.14-.15V37A.12.12,0,0,0,8.76,36.87Zm9.89,0h-6c-.1,0-.15.05-.15.14v9.37a.13.13,0,0,0,.15.15h6c.09,0,.14-.05.14-.15V45.16a.13.13,0,0,0-.14-.14H14.21a.07.07,0,0,1-.08-.08V42.49a.07.07,0,0,1,.08-.08H18a.13.13,0,0,0,.14-.14V41A.13.13,0,0,0,18,40.9H14.21a.07.07,0,0,1-.08-.08V38.46c0-.06,0-.09.08-.09h4.44a.12.12,0,0,0,.14-.14V37A.13.13,0,0,0,18.65,36.87Zm10.38,0H27.79a.13.13,0,0,0-.14.14v6.66h-.06L23.66,37a.28.28,0,0,0-.24-.14H22.11A.13.13,0,0,0,22,37v9.37c0,.1.05.15.14.15h1.24c.09,0,.14-.05.14-.15V39.74h.05l3.95,6.64a.27.27,0,0,0,.24.15H29c.09,0,.14-.05.14-.15V37A.13.13,0,0,0,29,36.87Zm10.6,0H38.24a.13.13,0,0,0-.14.14V43.1a2.08,2.08,0,0,1-.52,1.54,1.85,1.85,0,0,1-1.37.54,1.8,1.8,0,0,1-1.35-.54,2.08,2.08,0,0,1-.52-1.54V37a.13.13,0,0,0-.14-.14H32.8a.13.13,0,0,0-.14.14v6.12a3.93,3.93,0,0,0,.27,1.5,3.21,3.21,0,0,0,1.87,1.81,4,4,0,0,0,1.41.24,4.07,4.07,0,0,0,1.42-.24,3.19,3.19,0,0,0,1.88-1.81,3.93,3.93,0,0,0,.27-1.5V37C39.78,36.92,39.73,36.87,39.63,36.87ZM0,0V6H40V0ZM0,18H40V12H0ZM0,30H40V24H0Z"/></g></g></svg>