<?xml version="1.0" encoding="utf-8"?>
<!-- Generator: Adobe Illustrator 24.0.1, SVG Export Plug-In . SVG Version: 6.00 Build 0)  -->
<svg version="1.1" id="Layer_1" xmlns="http://www.w3.org/2000/svg" xmlns:xlink="http://www.w3.org/1999/xlink" x="0px" y="0px"
	 viewBox="0 0 705 230" style="enable-background:new 0 0 705 230; fill: #dddddd;" xml:space="preserve">
<g>
	<path d="M121.46,109.33l-1.01,5.9c-1.8-0.86-3.6-1.15-4.9-1.15c-6.7,0-9.36,7.13-9.36,15.99v12.31h-6.34v-33.63h6.34v7.63
		c1.73-5.9,4.97-8.35,9.43-8.35C118,108.04,120.45,108.69,121.46,109.33z"/>
	<path d="M158.25,128.27h-27.36c0.94,5.98,5.26,8.93,11.02,8.93c4.1,0,7.92-1.73,9.79-5.11l5.47,2.16c-2.95,5.83-9,8.86-15.48,8.86
		c-9.58,0-17.28-6.99-17.28-17.64c0-10.66,7.7-17.43,17.28-17.43s16.71,6.77,16.71,17.43C158.4,126.4,158.32,127.34,158.25,128.27z
		 M152.13,122.87c-0.79-5.76-4.9-8.93-10.44-8.93c-5.69,0-9.72,2.88-10.73,8.93H152.13z"/>
	<path d="M164.23,132.38h5.83c0.07,2.88,2.59,5.26,6.7,5.26c4.25,0,6.77-1.94,6.77-4.68c0-2.52-1.94-3.82-4.61-4.39l-4.61-1.08
		c-5.62-1.51-8.86-4.25-8.86-9.65c0-5.54,4.75-9.79,11.52-9.79c5.69,0,11.59,3.02,11.59,9.79h-6.05c-0.07-2.59-2.74-4.32-5.4-4.32
		c-3.24,0-5.4,1.94-5.4,4.54c0,2.3,2.16,3.53,4.32,4.03l4.97,1.22c6.98,1.73,8.78,5.9,8.78,9.72c0,6.26-6.05,10.08-13.03,10.08
		C170.71,143.11,164.51,139.29,164.23,132.38z"/>
	<path d="M195.98,125.46c0-10.66,7.99-17.43,17.57-17.43s17.64,6.77,17.64,17.43c0,10.66-8.06,17.64-17.64,17.64
		S195.98,136.12,195.98,125.46z M224.92,125.46c0-6.91-5.18-11.52-11.38-11.52c-6.12,0-11.23,4.61-11.23,11.52
		c0,6.98,5.11,11.74,11.23,11.74C219.74,137.2,224.92,132.45,224.92,125.46z"/>
	<path d="M270.86,122.94v19.44h-6.26V123.3c0-5.62-3.46-9.07-8.14-9.07c-4.68,0-10.3,2.66-10.3,9.94v18.22h-6.26v-33.63h6.26v5.11
		c2.02-4.1,7.49-5.83,11.16-5.83C265.67,108.04,270.93,113.51,270.86,122.94z"/>
	<path d="M314.13,108.76v33.63h-6.26v-5.33c-2.23,3.89-7.13,6.05-11.95,6.05c-9.22,0-16.85-6.99-16.85-17.57
		c0-10.66,7.56-17.5,16.78-17.5c5.04,0,9.79,2.02,12.03,5.98v-5.26H314.13z M307.87,125.46c0-7.27-5.9-11.52-11.45-11.52
		c-6.12,0-11.02,4.75-11.02,11.52c0,6.7,4.9,11.74,11.02,11.74C302.46,137.2,307.87,132.66,307.87,125.46z"/>
	<path d="M356.03,122.94v19.44h-6.27V123.3c0-5.62-3.46-9.07-8.14-9.07c-4.68,0-10.3,2.66-10.3,9.94v18.22h-6.26v-33.63h6.26v5.11
		c2.02-4.1,7.49-5.83,11.16-5.83C350.85,108.04,356.1,113.51,356.03,122.94z"/>
	<path d="M382.17,114.16h-7.27v28.23h-6.26v-28.23h-6.05v-5.4h6.05V96.01h6.26v12.75h7.27V114.16z"/>
	<path d="M385.91,138.78c0-2.59,2.09-4.46,4.54-4.46c2.52,0,4.68,1.87,4.68,4.46c0,2.52-2.16,4.32-4.68,4.32
		C388,143.11,385.91,141.3,385.91,138.78z"/>
	<path d="M436.6,90.4v51.99h-6.26v-5.33c-2.23,3.89-7.13,6.05-11.95,6.05c-9.22,0-16.85-6.99-16.85-17.57
		c0-10.66,7.56-17.5,16.78-17.5c5.04,0,9.79,2.02,12.03,5.98V90.4H436.6z M430.34,125.46c0-7.27-5.9-11.52-11.45-11.52
		c-6.12,0-11.02,4.75-11.02,11.52c0,6.7,4.9,11.74,11.02,11.74C424.94,137.2,430.34,132.66,430.34,125.46z"/>
	<path d="M479.08,128.27h-27.36c0.94,5.98,5.26,8.93,11.02,8.93c4.1,0,7.92-1.73,9.79-5.11l5.47,2.16c-2.95,5.83-9,8.86-15.48,8.86
		c-9.58,0-17.28-6.99-17.28-17.64c0-10.66,7.71-17.43,17.28-17.43c9.58,0,16.71,6.77,16.71,17.43
		C479.22,126.4,479.15,127.34,479.08,128.27z M472.96,122.87c-0.79-5.76-4.9-8.93-10.44-8.93c-5.69,0-9.72,2.88-10.73,8.93H472.96z"
		/>
	<path d="M485.05,132.38h5.83c0.07,2.88,2.59,5.26,6.7,5.26c4.25,0,6.77-1.94,6.77-4.68c0-2.52-1.94-3.82-4.61-4.39l-4.61-1.08
		c-5.62-1.51-8.86-4.25-8.86-9.65c0-5.54,4.75-9.79,11.52-9.79c5.69,0,11.59,3.02,11.59,9.79h-6.05c-0.07-2.59-2.74-4.32-5.4-4.32
		c-3.24,0-5.4,1.94-5.4,4.54c0,2.3,2.16,3.53,4.32,4.03l4.97,1.22c6.98,1.73,8.78,5.9,8.78,9.72c0,6.26-6.05,10.08-13.03,10.08
		C491.53,143.11,485.34,139.29,485.05,132.38z"/>
	<path d="M517.81,96.37c0-2.38,2.02-4.18,4.39-4.18c2.45,0,4.46,1.8,4.46,4.18c0,2.38-2.02,4.18-4.46,4.18
		C519.83,100.55,517.81,98.75,517.81,96.37z M519.11,108.76h6.26v33.63h-6.26V108.76z"/>
	<path d="M569.08,108.76v28.51c0,15.91-7.2,21.89-18.29,21.89c-6.12,0-11.81-3.1-15.12-9l5.33-2.81c2.09,3.82,6.05,5.9,9.79,5.9
		c7.42,0,12.03-4.18,12.03-15.55v-0.65c-2.23,3.89-7.13,6.05-11.95,6.05c-9.22,0-16.85-6.99-16.85-17.57
		c0-10.66,7.56-17.5,16.78-17.5c5.04,0,9.79,2.09,12.03,5.98v-5.26H569.08z M562.81,125.46c0-7.27-5.9-11.52-11.45-11.52
		c-6.12,0-11.02,4.75-11.02,11.52c0,6.7,4.9,11.74,11.02,11.74C557.41,137.2,562.81,132.66,562.81,125.46z"/>
	<path d="M610.98,122.94v19.44h-6.26V123.3c0-5.62-3.46-9.07-8.14-9.07c-4.68,0-10.3,2.66-10.3,9.94v18.22h-6.26v-33.63h6.26v5.11
		c2.02-4.1,7.49-5.83,11.16-5.83C605.8,108.04,611.05,113.51,610.98,122.94z"/>
</g>
</svg>
